<svg xmlns="http://www.w3.org/2000/svg" xmlns:xlink="http://www.w3.org/1999/xlink" width="500" zoomAndPan="magnify" viewBox="0 0 375 374.999991" height="500" preserveAspectRatio="xMidYMid meet" version="1.0"><defs><clipPath id="5785889eaf"><path d="M 233.617188 159.292969 L 328.867188 159.292969 L 328.867188 254.542969 L 233.617188 254.542969 Z M 233.617188 159.292969 " clip-rule="nonzero"/></clipPath><clipPath id="0a06b4d276"><path d="M 32.753906 164.9375 L 128.003906 164.9375 L 128.003906 260.1875 L 32.753906 260.1875 Z M 32.753906 164.9375 " clip-rule="nonzero"/></clipPath><clipPath id="1113a418c6"><path d="M 22.257812 140 L 151 140 L 151 269.496094 L 22.257812 269.496094 Z M 22.257812 140 " clip-rule="nonzero"/></clipPath><clipPath id="85bef2cae8"><path d="M 224 140 L 353 140 L 353 269.496094 L 224 269.496094 Z M 224 140 " clip-rule="nonzero"/></clipPath></defs><rect x="-37.5" width="450" fill="#ffffff" y="-37.499999" height="449.999989" fill-opacity="1"/><path fill="#ffffff" d="M 318.730469 207.988281 C 318.050781 207.058594 301.863281 185.183594 281.28125 185.183594 C 260.703125 185.183594 244.5 207.054688 243.820312 207.988281 C 243.820312 207.988281 242.960938 209.167969 242.960938 209.167969 C 242.960938 209.167969 243.824219 210.339844 243.824219 210.339844 C 244.503906 211.265625 260.707031 232.976562 281.28125 232.976562 C 301.859375 232.976562 318.046875 211.265625 318.726562 210.339844 C 318.726562 210.339844 319.585938 209.167969 319.585938 209.167969 C 319.585938 209.167969 318.730469 207.988281 318.730469 207.988281 Z M 318.730469 207.988281 " fill-opacity="1" fill-rule="nonzero"/><path fill="#00acc1" d="M 263.359375 209.070312 C 263.359375 199.167969 271.394531 191.15625 281.285156 191.15625 C 291.175781 191.15625 299.207031 199.167969 299.207031 209.070312 C 299.207031 218.980469 291.175781 227.003906 281.285156 227.003906 C 271.394531 227.003906 263.359375 218.980469 263.359375 209.070312 Z M 263.359375 209.070312 " fill-opacity="1" fill-rule="nonzero"/><path fill="#006064" d="M 273.316406 209.078125 C 273.316406 204.671875 276.875 201.113281 281.285156 201.113281 C 285.671875 201.113281 289.25 204.671875 289.25 209.078125 C 289.25 213.5 285.671875 217.046875 281.285156 217.046875 C 276.875 217.046875 273.316406 213.5 273.316406 209.078125 Z M 273.316406 209.078125 " fill-opacity="1" fill-rule="nonzero"/><g clip-path="url(#5785889eaf)"><path stroke-linecap="butt" transform="matrix(1.991455, 0, 0, 1.991455, 281.413608, 207.089444)" fill="none" stroke-linejoin="miter" d="M -0.0664632 -10.999923 C 10.260864 -10.999923 18.397189 -0.0154913 18.738491 0.451347 C 18.738491 0.451347 19.168061 1.043722 19.168061 1.043722 C 19.168061 1.043722 18.734568 1.634135 18.734568 1.634135 C 18.393266 2.09705 10.256941 12.999098 -0.0664632 12.999098 C -10.391829 12.999098 -18.534038 2.09705 -18.87534 1.632173 C -18.87534 1.632173 -19.310794 1.043722 -19.310794 1.043722 C -19.310794 1.043722 -18.877302 0.451347 -18.877302 0.451347 C -18.537961 -0.0154913 -10.401636 -10.999923 -0.0664632 -10.999923 " stroke="#cfd8dc" stroke-width="2" stroke-opacity="1" stroke-miterlimit="10"/></g><path fill="#ffb74d" d="M 322.25 209.082031 C 313.972656 193.148438 298.660156 183.191406 281.414062 183.191406 C 264.207031 183.191406 249.132812 193.882812 241.101562 209.179688 C 241.101562 209.179688 241.101562 209.082031 241.101562 209.082031 C 249.363281 193.570312 264.453125 183.191406 281.699219 183.191406 C 298.910156 183.191406 313.972656 193.53125 322.25 208.984375 C 322.25 208.984375 322.25 209.082031 322.25 209.082031 Z M 322.25 209.082031 " fill-opacity="1" fill-rule="nonzero"/><path fill="#90a4ae" d="M 245.484375 209.082031 C 246.53125 207.6875 262.148438 187.253906 281.28125 187.253906 C 300.40625 187.253906 316.015625 207.683594 317.058594 209.078125 C 317.058594 209.078125 326.929688 209.082031 326.929688 209.082031 C 326.929688 209.082031 323.546875 204.457031 323.546875 204.457031 C 322.792969 203.425781 304.851562 179.289062 281.28125 179.289062 C 257.707031 179.289062 239.753906 203.425781 239 204.453125 C 239 204.453125 235.609375 209.082031 235.609375 209.082031 C 235.609375 209.082031 245.484375 209.082031 245.484375 209.082031 Z M 245.484375 209.082031 " fill-opacity="1" fill-rule="nonzero"/><path fill="#ffffff" d="M 117.855469 213.628906 C 117.175781 212.695312 100.988281 190.824219 80.414062 190.824219 C 59.835938 190.824219 43.636719 212.695312 42.957031 213.625 C 42.957031 213.625 42.097656 214.804688 42.097656 214.804688 C 42.097656 214.804688 42.960938 215.980469 42.960938 215.980469 C 43.640625 216.902344 59.839844 238.613281 80.414062 238.613281 C 100.984375 238.613281 117.171875 216.902344 117.851562 215.980469 C 117.851562 215.980469 118.714844 214.804688 118.714844 214.804688 C 118.714844 214.804688 117.855469 213.628906 117.855469 213.628906 Z M 117.855469 213.628906 " fill-opacity="1" fill-rule="nonzero"/><path fill="#00acc1" d="M 62.492188 214.707031 C 62.492188 204.808594 70.527344 196.796875 80.414062 196.796875 C 90.308594 196.796875 98.335938 204.808594 98.335938 214.707031 C 98.335938 224.617188 90.308594 232.640625 80.414062 232.640625 C 70.523438 232.640625 62.492188 224.617188 62.492188 214.707031 Z M 62.492188 214.707031 " fill-opacity="1" fill-rule="nonzero"/><path fill="#006064" d="M 72.449219 214.71875 C 72.449219 210.3125 76.007812 206.753906 80.414062 206.753906 C 84.804688 206.753906 88.378906 210.3125 88.378906 214.71875 C 88.378906 219.136719 84.804688 222.683594 80.414062 222.683594 C 76.007812 222.683594 72.449219 219.136719 72.449219 214.71875 Z M 72.449219 214.71875 " fill-opacity="1" fill-rule="nonzero"/><g clip-path="url(#0a06b4d276)"><path stroke-linecap="butt" transform="matrix(1.991211, 0, 0, 1.991211, 80.544066, 212.728376)" fill="none" stroke-linejoin="miter" d="M -0.0652889 -11.00042 C 10.25938 -11.00042 18.396702 -0.0146428 18.738046 0.452253 C 18.738046 0.452253 19.16963 1.0447 19.16963 1.0447 C 19.16963 1.0447 18.734122 1.633224 18.734122 1.633224 C 18.39474 2.098158 10.257418 12.99958 -0.0652889 12.99958 C -10.391919 12.99958 -18.535127 2.096196 -18.876471 1.633224 C -18.876471 1.633224 -19.310016 1.0447 -19.310016 1.0447 C -19.310016 1.0447 -18.878432 0.452253 -18.878432 0.452253 C -18.537089 -0.0166045 -10.401728 -11.00042 -0.0652889 -11.00042 " stroke="#cfd8dc" stroke-width="2" stroke-opacity="1" stroke-miterlimit="10"/></g><path fill="#ffb74d" d="M 121.375 214.71875 C 113.101562 198.789062 97.789062 188.832031 80.542969 188.832031 C 63.339844 188.832031 48.265625 199.523438 40.234375 214.816406 C 40.234375 214.816406 40.234375 214.71875 40.234375 214.71875 C 48.5 199.210938 63.585938 188.832031 80.832031 188.832031 C 98.035156 188.832031 113.097656 199.171875 121.375 214.621094 C 121.375 214.621094 121.375 214.71875 121.375 214.71875 Z M 121.375 214.71875 " fill-opacity="1" fill-rule="nonzero"/><path fill="#90a4ae" d="M 44.621094 214.71875 C 45.664062 213.324219 61.28125 192.894531 80.410156 192.894531 C 99.535156 192.894531 115.140625 213.324219 116.183594 214.71875 C 116.183594 214.71875 126.054688 214.71875 126.054688 214.71875 C 126.054688 214.71875 122.671875 210.097656 122.671875 210.097656 C 121.917969 209.066406 103.980469 184.929688 80.410156 184.929688 C 56.839844 184.929688 38.886719 209.066406 38.136719 210.09375 C 38.136719 210.09375 34.746094 214.71875 34.746094 214.71875 C 34.746094 214.71875 44.621094 214.71875 44.621094 214.71875 Z M 44.621094 214.71875 " fill-opacity="1" fill-rule="nonzero"/><path fill="#d1950a" d="M 221.390625 119.46875 C 221.476562 119.167969 221.726562 118.855469 221.929688 118.453125 C 221.96875 118.507812 221.996094 118.546875 222.027344 118.597656 C 232.332031 104.503906 245.519531 97.359375 262.453125 97.253906 C 262.585938 96.875 262.714844 96.5 262.847656 96.121094 C 258.667969 92.335938 254.867188 87.988281 250.234375 84.882812 C 239.253906 77.523438 223.535156 83.578125 221.167969 96.472656 C 219.835938 103.71875 220.925781 111.414062 220.925781 120.113281 C 221.078125 119.890625 221.238281 119.6875 221.390625 119.46875 Z M 221.390625 119.46875 " fill-opacity="1" fill-rule="nonzero"/><path fill="#d1950a" d="M 92.363281 164.425781 C 91.363281 164.292969 90.363281 164.210938 89.507812 164.375 C 89.449219 164.410156 89.390625 164.445312 89.320312 164.484375 C 90.015625 164.507812 90.5 164.523438 90.972656 164.539062 C 91.316406 165.945312 91.316406 165.945312 89.671875 165.679688 C 89.355469 165.253906 89.089844 164.902344 88.84375 164.566406 C 88.011719 164.90625 87.390625 165.597656 87.160156 166.90625 C 86.640625 169.878906 88.984375 170.390625 91.296875 170.773438 C 95.269531 171.4375 99.003906 172.648438 102.441406 174.480469 C 102.488281 174.324219 102.5625 174.15625 102.699219 173.964844 C 102.847656 173.753906 102.6875 173.304688 102.667969 172.953125 C 103.15625 172.820312 103.660156 172.683594 104.199219 172.535156 C 104.453125 172.75 104.753906 173.003906 105.148438 173.339844 C 105.265625 172.9375 105.335938 172.691406 105.410156 172.4375 C 105.46875 172.4375 105.53125 172.429688 105.585938 172.445312 C 106.242188 172.621094 106.820312 173.421875 107.605469 172.683594 C 107.667969 172.625 108.039062 172.917969 108.265625 173.050781 C 108.5 173.183594 108.734375 173.320312 109.085938 173.25 C 108.722656 172.832031 108.363281 172.417969 108.003906 172 C 108.097656 171.894531 108.195312 171.789062 108.289062 171.683594 C 108.960938 172.148438 109.632812 172.613281 110.3125 173.085938 C 110.972656 174.542969 109.65625 175.203125 109.078125 176.210938 C 108.402344 175.523438 107.351562 175.53125 106.867188 176.023438 C 106.34375 176.0625 106.003906 176.109375 105.664062 176.105469 C 105.523438 176.101562 105.355469 176.113281 105.195312 176.113281 C 106.488281 176.976562 107.734375 177.9375 108.921875 179.007812 C 113.96875 183.574219 117.5 188.828125 119.34375 194.820312 C 119.574219 194.941406 119.847656 195.15625 120.246094 195.484375 C 120.324219 195.550781 120.492188 195.503906 120.640625 195.511719 C 120.378906 196.0625 120.15625 196.546875 119.929688 197.015625 C 120.597656 199.902344 120.90625 202.945312 120.816406 206.160156 C 120.746094 208.527344 120.457031 211.359375 123.703125 211.542969 C 127.296875 211.746094 127.152344 208.707031 127.226562 206.210938 C 127.285156 204.320312 127.21875 202.421875 127.210938 201.644531 C 125.015625 181.996094 110.367188 166.785156 92.363281 164.425781 Z M 97.515625 170.828125 C 97.386719 170.480469 97.261719 170.132812 97.074219 169.632812 C 96.953125 169.917969 96.878906 170.089844 96.808594 170.257812 C 96.324219 169.980469 95.878906 169.726562 95.429688 169.46875 C 95.457031 169.375 95.484375 169.277344 95.507812 169.183594 C 95.8125 169.289062 96.117188 169.390625 96.492188 169.523438 C 96.59375 169.3125 96.71875 169.058594 96.875 168.734375 C 97.359375 168.976562 97.84375 169.222656 98.328125 169.46875 C 98.140625 169.703125 97.953125 169.9375 97.726562 170.222656 C 97.859375 170.269531 98.003906 170.320312 98.347656 170.441406 C 97.980469 170.613281 97.746094 170.71875 97.515625 170.828125 Z M 121.621094 190.160156 C 121.894531 190.21875 122.179688 190.277344 122.535156 190.351562 C 122.484375 190.015625 122.441406 189.710938 122.375 189.273438 C 123.9375 190.28125 124.621094 191.265625 124.808594 192.644531 C 122.9375 193.4375 120.835938 191.824219 121.621094 190.160156 Z M 121.621094 190.160156 " fill-opacity="1" fill-rule="nonzero"/><path fill="#d1950a" d="M 155.34375 99.070312 C 155.066406 99.496094 154.789062 99.925781 154.484375 100.398438 C 154.125 100.101562 153.867188 99.886719 153.617188 99.683594 C 154.199219 99.367188 154.753906 99.070312 155.308594 98.769531 C 155.265625 98.398438 155.234375 98.023438 155.183594 97.652344 C 154.980469 96.265625 154.617188 94.945312 154.132812 93.695312 C 153.90625 93.640625 153.648438 93.667969 153.332031 93.859375 C 153.222656 93.925781 152.757812 93.65625 152.707031 93.472656 C 152.632812 93.195312 152.777344 92.851562 152.832031 92.535156 C 152.925781 92.5625 153.019531 92.585938 153.113281 92.613281 C 153.050781 92.828125 152.992188 93.042969 152.929688 93.261719 C 153.390625 93.375 153.765625 93.46875 154.078125 93.550781 C 152.800781 90.347656 150.664062 87.640625 148.015625 85.625 C 147.542969 85.625 147.09375 85.625 146.660156 85.625 C 146.183594 85.46875 145.472656 85.128906 146.355469 84.488281 C 140.949219 81.1875 133.980469 80.511719 127.929688 83.765625 C 122.347656 86.773438 117.882812 91.855469 113.308594 95.671875 C 121.554688 98.230469 129.820312 99.542969 136.757812 103.300781 C 143.683594 107.050781 149.28125 113.246094 155.363281 118.289062 C 155.363281 112.253906 156.0625 105.578125 155.34375 99.070312 Z M 147.144531 105.183594 C 145.773438 105.484375 144.960938 104.171875 143.78125 103.914062 C 143.824219 103.785156 143.871094 103.65625 143.914062 103.527344 C 145.039062 103.945312 146.160156 104.363281 147.285156 104.78125 C 147.238281 104.914062 147.191406 105.050781 147.144531 105.183594 Z M 148.898438 109.941406 C 148.707031 109.886719 148.496094 109.867188 148.328125 109.769531 C 148.101562 109.628906 147.914062 109.429688 147.632812 109.195312 C 147.992188 108.636719 148.632812 108.585938 148.949219 109.175781 C 149.050781 109.363281 148.921875 109.679688 148.898438 109.941406 Z M 150.621094 106.035156 C 150.625 105.925781 150.628906 105.820312 150.632812 105.710938 C 151.25 105.328125 151.859375 105.015625 152.511719 106.171875 C 151.738281 106.117188 151.179688 106.074219 150.621094 106.035156 Z M 150.644531 103.785156 C 150.238281 103.964844 149.9375 104.101562 149.453125 104.3125 C 150.0625 102.847656 150.605469 101.539062 151.171875 100.171875 C 151.109375 100.148438 150.855469 100.054688 150.539062 99.9375 C 150.710938 99.539062 150.851562 99.207031 151.011719 98.828125 C 151.300781 99.375 151.554688 99.851562 151.847656 100.398438 C 151.757812 100.539062 151.609375 100.765625 151.324219 101.207031 C 151.910156 101.023438 152.308594 100.898438 152.929688 100.703125 C 152.128906 101.894531 149.867188 101.636719 150.644531 103.785156 Z M 150.644531 103.785156 " fill-opacity="1" fill-rule="nonzero"/><g clip-path="url(#1113a418c6)"><path fill="#d1950a" d="M 147.605469 188.96875 C 147.386719 188.621094 147.054688 187.980469 147.167969 187.851562 C 147.4375 187.546875 147.859375 187.214844 148.234375 187.125 C 140.625 160.058594 115.949219 140.394531 86.371094 140.40625 C 50.960938 140.421875 22.445312 169.046875 22.257812 204.761719 C 22.21875 211.75 23.332031 218.476562 25.390625 224.789062 C 25.585938 225.023438 25.78125 225.355469 26.039062 225.8125 C 25.921875 225.769531 25.8125 225.734375 25.691406 225.695312 C 25.859375 226.183594 26.027344 226.671875 26.207031 227.15625 C 26.882812 227.382812 27.523438 227.671875 27.917969 228.394531 C 28.0625 228.65625 28.054688 229.003906 28.117188 229.308594 C 27.988281 229.34375 27.859375 229.375 27.726562 229.410156 C 27.460938 229.136719 27.140625 228.925781 26.816406 228.71875 C 36.21875 252.191406 59.179688 268.90625 85.96875 269.011719 C 121.921875 269.148438 150.59375 240.753906 150.667969 204.929688 C 150.679688 199.570312 150.035156 194.371094 148.832031 189.398438 C 148.402344 189.613281 147.988281 189.578125 147.605469 188.96875 Z M 32.375 197.953125 C 32.410156 198.148438 32.445312 198.347656 32.484375 198.546875 C 32.363281 198.574219 32.242188 198.601562 32.121094 198.628906 C 32.03125 198.875 31.929688 199.144531 31.816406 199.457031 C 31.601562 199.273438 31.363281 199.070312 31.117188 198.863281 C 31.023438 198.882812 30.929688 198.90625 30.835938 198.929688 C 30.761719 198.765625 30.691406 198.601562 30.621094 198.441406 C 30.785156 198.582031 30.953125 198.722656 31.117188 198.863281 C 31.449219 198.785156 31.785156 198.707031 32.121094 198.628906 C 32.210938 198.390625 32.292969 198.171875 32.375 197.953125 Z M 23.972656 195.488281 C 24.191406 195.308594 24.351562 194.371094 24.886719 195.441406 C 24.914062 195.492188 25.011719 195.5625 25.023438 195.550781 C 25.972656 194.796875 26.207031 195.757812 26.628906 196.355469 C 26.878906 196.144531 27.085938 195.96875 27.523438 195.597656 C 27.390625 196.207031 27.324219 196.519531 27.261719 196.8125 C 26.640625 196.917969 25.9375 196.105469 25.507812 197.210938 C 25.769531 197.453125 26.054688 197.722656 26.339844 197.988281 C 26.3125 198.085938 26.285156 198.183594 26.257812 198.28125 C 25.730469 198.078125 25.167969 197.941406 24.703125 197.640625 C 24.515625 197.515625 24.574219 197.019531 24.472656 196.710938 C 24.34375 196.332031 24.167969 195.964844 23.972656 195.488281 Z M 25.023438 208.699219 C 25.261719 209.082031 25.46875 209.417969 25.710938 209.8125 C 25.511719 209.96875 25.308594 210.125 25.097656 210.289062 C 24.886719 209.867188 24.703125 209.503906 24.488281 209.085938 C 24.632812 208.980469 24.816406 208.847656 25.023438 208.699219 Z M 24.769531 212.644531 C 25 212.691406 25.183594 212.734375 25.492188 212.800781 C 25.378906 212.34375 25.285156 211.964844 25.179688 211.542969 C 26.316406 212.328125 27.386719 213.070312 28.460938 213.816406 C 28.394531 213.921875 28.328125 214.03125 28.261719 214.140625 C 27.542969 213.699219 26.828125 213.257812 26.085938 212.800781 C 25.644531 213.132812 25.15625 213.878906 24.769531 212.644531 Z M 28.910156 228.351562 C 28.425781 227.777344 27.972656 227.246094 27.492188 226.679688 C 27.640625 226.558594 27.882812 226.335938 28.152344 226.152344 C 28.242188 226.089844 28.414062 226.089844 28.519531 226.132812 C 28.867188 226.277344 29.0625 228.15625 28.910156 228.351562 Z M 28.894531 213.183594 C 28.132812 212.585938 27.375 211.984375 26.617188 211.386719 C 26.660156 211.324219 26.703125 211.261719 26.746094 211.195312 C 27.53125 211.738281 28.3125 212.28125 29.09375 212.824219 C 29.027344 212.945312 28.960938 213.0625 28.894531 213.183594 Z M 28.988281 203.121094 C 28.753906 203.0625 28.515625 203.003906 28.179688 202.921875 C 28.574219 205.363281 26.777344 202.980469 26.402344 203.859375 C 26.824219 203.210938 27.242188 202.5625 27.675781 201.894531 C 27.363281 201.636719 27.164062 201.46875 26.941406 201.285156 C 27.042969 201.179688 27.121094 201.042969 27.175781 201.050781 C 28.261719 201.21875 28.542969 202.226562 29.152344 202.898438 C 29.097656 202.972656 29.042969 203.046875 28.988281 203.121094 Z M 32.246094 233.714844 C 31.960938 233.519531 31.679688 233.324219 31.398438 233.125 C 31.503906 232.617188 31.605469 232.109375 31.710938 231.597656 C 31.632812 232.390625 32.929688 232.820312 32.246094 233.714844 Z M 29.195312 215.445312 C 30.328125 215.265625 31.464844 215.082031 32.597656 214.898438 C 32.664062 215.019531 32.730469 215.144531 32.800781 215.269531 C 32.210938 215.804688 31.980469 216.25 32.722656 216.820312 C 33.007812 217.039062 33 217.671875 33.125 218.117188 C 31.589844 218.351562 29.960938 217.457031 29.195312 215.445312 Z M 32.628906 202.96875 C 32.753906 202.777344 32.945312 202.167969 33.207031 202.128906 C 34.191406 201.996094 34.402344 202.773438 34.511719 203.652344 C 33.898438 203.429688 33.382812 203.242188 32.628906 202.96875 Z M 34.949219 234.597656 C 34.847656 234.328125 34.679688 233.875 34.515625 233.445312 C 35.601562 232.699219 36.058594 233.210938 36.371094 234.214844 C 35.941406 234.332031 35.539062 234.4375 34.949219 234.597656 Z M 42.054688 235.632812 C 41.554688 235.285156 41.050781 234.933594 40.546875 234.585938 C 40.578125 234.53125 40.609375 234.472656 40.640625 234.414062 C 41.125 234.492188 41.609375 234.566406 42.1875 234.660156 C 42.214844 234.863281 42.261719 235.160156 42.304688 235.453125 C 42.222656 235.515625 42.140625 235.574219 42.054688 235.632812 Z M 38.285156 233.605469 C 38.960938 233.113281 39.386719 232.800781 39.769531 232.519531 C 40.132812 233.121094 40.371094 233.523438 40.671875 234.019531 C 39.957031 233.894531 39.273438 233.777344 38.285156 233.605469 Z M 45.957031 243.21875 C 45.167969 242.671875 44.378906 242.125 43.589844 241.578125 C 44.109375 240.824219 44.761719 240.777344 45.496094 241.210938 C 46.332031 241.710938 46.25 242.441406 45.957031 243.21875 Z M 75.6875 260.085938 C 75.574219 260.074219 75.460938 260.066406 75.347656 260.054688 C 75.335938 259.6875 75.320312 259.316406 75.304688 258.863281 C 75.058594 258.65625 74.765625 258.414062 74.472656 258.171875 C 74.660156 257.988281 74.84375 257.800781 74.910156 257.738281 C 75.355469 258.179688 75.699219 258.515625 76.121094 258.933594 C 76 259.253906 75.84375 259.671875 75.6875 260.085938 Z M 136.136719 235.140625 C 135.964844 234.902344 135.777344 234.644531 135.585938 234.382812 C 136.566406 233.769531 136.800781 233.847656 137.058594 234.886719 C 136.707031 234.980469 136.425781 235.058594 136.136719 235.140625 Z M 86.515625 256.132812 C 77.023438 256.1875 68.089844 253.597656 60.40625 249.074219 C 60.410156 249.320312 60.417969 249.558594 60.421875 249.792969 C 60.070312 249.726562 59.636719 249.652344 59.207031 249.5625 C 59.109375 249.542969 58.945312 249.503906 58.9375 249.453125 C 58.746094 247.78125 57.132812 248.691406 56.371094 247.894531 C 57.265625 247.273438 59.089844 247.9375 59.679688 249.121094 C 59.734375 248.996094 59.789062 248.875 59.84375 248.75 C 48.445312 241.847656 39.898438 230.640625 36.542969 217.472656 C 36.488281 217.339844 36.433594 217.214844 36.382812 217.09375 C 36.40625 217.089844 36.429688 217.078125 36.453125 217.070312 C 36.40625 216.890625 36.367188 216.710938 36.328125 216.53125 C 35.609375 216.03125 34.96875 215.589844 34.191406 215.050781 C 34.507812 214.964844 34.777344 214.789062 34.957031 214.859375 C 35.34375 215.015625 35.765625 215.152344 36.074219 215.449219 C 35.792969 214.117188 35.574219 212.761719 35.402344 211.394531 C 35.339844 211.445312 35.285156 211.488281 35.222656 211.542969 C 35.171875 211.621094 35.050781 212.03125 34.808594 212.140625 C 34.1875 212.417969 33.855469 211.992188 33.488281 211.195312 C 33.917969 211.457031 34.113281 211.582031 34.363281 211.734375 C 34.378906 211.59375 34.429688 211.476562 34.394531 211.421875 C 34.039062 210.855469 33.941406 210.207031 33.335938 209.703125 C 32.464844 208.984375 32.996094 207.535156 34.019531 206.996094 C 34.402344 206.792969 34.734375 206.707031 35.03125 206.722656 C 35.011719 206.113281 34.988281 205.503906 34.992188 204.886719 C 34.996094 203.941406 35.027344 203.003906 35.082031 202.070312 C 34.871094 202.148438 34.644531 202.234375 34.359375 202.34375 C 34.398438 201.90625 34.429688 201.53125 34.484375 200.90625 C 33.914062 201.148438 33.585938 201.285156 33.398438 201.367188 C 33.203125 200.789062 32.96875 200.097656 32.679688 199.253906 C 33.796875 199.378906 34.476562 200.15625 35.167969 201.015625 C 37.246094 174.710938 59.273438 154.082031 86.328125 153.96875 C 90.808594 153.953125 95.160156 154.535156 99.3125 155.632812 C 99.546875 155.351562 99.789062 155.058594 100.039062 154.753906 C 100.421875 155.214844 100.804688 155.683594 101.207031 156.167969 C 109.8125 158.808594 117.480469 163.707031 123.523438 170.164062 C 123.71875 170.183594 123.910156 170.210938 124.109375 170.234375 C 124.03125 170.355469 123.964844 170.460938 123.902344 170.558594 C 124.097656 170.769531 124.28125 170.996094 124.472656 171.210938 C 124.527344 171.238281 124.578125 171.261719 124.632812 171.285156 C 124.625 171.316406 124.621094 171.34375 124.617188 171.375 C 125.660156 172.5625 126.652344 173.800781 127.582031 175.082031 C 127.53125 174.894531 127.488281 174.691406 127.402344 174.5625 C 127.492188 174.460938 127.585938 174.355469 127.675781 174.253906 C 127.992188 174.574219 128.304688 174.894531 128.691406 175.289062 C 128.296875 175.535156 128.0625 175.578125 127.902344 175.527344 C 131.816406 181.023438 134.679688 187.316406 136.175781 194.105469 C 136.371094 194.128906 136.566406 194.175781 136.753906 194.257812 C 136.867188 194.800781 137.191406 195.410156 137.046875 195.863281 C 136.988281 196.066406 136.820312 196.234375 136.617188 196.371094 C 137.089844 199.085938 137.351562 201.863281 137.371094 204.699219 C 137.558594 232.757812 114.617188 255.957031 86.515625 256.132812 Z M 86.515625 256.132812 " fill-opacity="1" fill-rule="nonzero"/></g><path fill="#d1950a" d="M 160.121094 185.375 C 156.460938 186.480469 154.171875 192.214844 156.160156 195.410156 C 156.476562 195.917969 157.308594 196.386719 157.910156 196.394531 C 163.644531 196.46875 169.382812 196.4375 175.078125 196.4375 C 172.9375 191.773438 171.03125 187.617188 168.851562 182.855469 C 166.179688 183.625 163.140625 184.460938 160.121094 185.375 Z M 160.121094 185.375 " fill-opacity="1" fill-rule="nonzero"/><path fill="#d1950a" d="M 141.953125 112.234375 C 141.933594 112.34375 141.917969 112.441406 141.898438 112.554688 C 141.492188 112.105469 141.203125 111.785156 140.910156 111.464844 C 140.925781 111.449219 140.941406 111.433594 140.953125 111.421875 C 138.660156 109.617188 136.109375 108.011719 133.328125 106.648438 C 118.449219 99.355469 101.796875 101.546875 90.515625 112.308594 C 82.15625 120.28125 73.816406 128.269531 65.488281 136.269531 C 64.753906 136.972656 64.160156 137.828125 63.277344 138.882812 C 102.945312 129.210938 131.847656 142.316406 150.984375 177.953125 C 151.320312 177.40625 151.453125 177.285156 151.464844 177.15625 C 152.59375 165.957031 153.726562 154.757812 154.824219 143.554688 C 156.027344 131.316406 151.242188 120.039062 141.953125 112.234375 Z M 108.738281 134.636719 C 108.019531 134.789062 107.292969 135.066406 106.585938 135.019531 C 106.363281 135.003906 106.199219 134.117188 106.003906 133.628906 C 106.109375 133.488281 106.214844 133.347656 106.320312 133.210938 C 107.132812 133.535156 107.945312 133.859375 108.757812 134.1875 C 108.75 134.335938 108.746094 134.484375 108.738281 134.636719 Z M 113.625 136.480469 C 112.882812 136.402344 112.117188 136.449219 111.929688 135.507812 C 111.90625 135.402344 112.335938 135.046875 112.425781 135.089844 C 112.976562 135.363281 113.972656 135.25 113.625 136.480469 Z M 113.441406 119.972656 C 113.097656 119.085938 113.242188 118.214844 113.949219 117.476562 C 114.925781 116.460938 115.46875 118.078125 116.257812 117.84375 C 116.355469 120.019531 115.117188 120.316406 113.441406 119.972656 Z M 115.410156 139.046875 C 115.941406 138.140625 116.335938 137.457031 116.734375 136.773438 C 117.136719 137.609375 117.410156 138.171875 117.796875 138.972656 C 117.027344 138.996094 116.355469 139.019531 115.410156 139.046875 Z M 116.75 136.722656 C 116.707031 136.292969 116.675781 136.011719 116.652344 135.773438 C 116.332031 135.804688 115.984375 135.90625 115.941406 135.828125 C 115.636719 135.28125 115.394531 134.699219 115.132812 134.128906 C 115.28125 134.027344 115.429688 133.925781 115.574219 133.824219 C 116.28125 134.5625 116.988281 135.300781 117.8125 136.164062 C 117.351562 136.410156 117.105469 136.539062 116.75 136.722656 Z M 122.890625 108.921875 C 122.601562 109.445312 121.9375 109.820312 121.46875 109.269531 C 121.207031 108.960938 121.226562 108.195312 121.402344 107.753906 C 121.507812 107.484375 122.152344 107.445312 122.554688 107.304688 C 122.671875 107.398438 122.789062 107.488281 122.90625 107.582031 C 122.914062 108.035156 123.078125 108.582031 122.890625 108.921875 Z M 126.558594 125.304688 C 126.113281 124.953125 125.824219 124.726562 125.332031 124.335938 C 125.796875 124.066406 126.113281 123.882812 126.617188 123.585938 C 126.59375 124.238281 126.582031 124.65625 126.558594 125.304688 Z M 135.34375 131.53125 C 135.304688 131.710938 134.789062 131.773438 134.5 131.90625 C 134.011719 132.132812 133.53125 132.371094 132.984375 132.636719 C 132.242188 132.167969 132.15625 131.65625 132.566406 130.828125 C 132.746094 130.472656 132.675781 129.957031 132.636719 129.523438 C 132.609375 129.148438 132.464844 128.78125 132.507812 128.320312 C 132.722656 128.609375 132.941406 128.898438 133.199219 129.25 C 133.699219 129.171875 134.324219 129.070312 134.953125 128.964844 C 134.960938 129.023438 134.96875 129.078125 134.980469 129.132812 C 134.835938 129.167969 134.691406 129.203125 134.371094 129.28125 C 134.621094 129.714844 134.875 130.089844 135.0625 130.5 C 135.214844 130.828125 135.40625 131.21875 135.34375 131.53125 Z M 136.679688 128.335938 C 135.96875 127.335938 134.410156 127.839844 133.816406 126.609375 C 133.777344 126.53125 133.375 126.644531 133.089844 126.671875 C 133.257812 126.367188 133.394531 126.113281 133.648438 125.65625 C 134.808594 126.457031 135.980469 127.269531 137.371094 128.234375 C 136.910156 128.304688 136.714844 128.382812 136.679688 128.335938 Z M 142.78125 116.207031 C 142.046875 116.730469 141.3125 117.246094 140.582031 117.765625 C 140.542969 117.683594 140.503906 117.597656 140.464844 117.515625 C 140.90625 116.832031 141.347656 116.148438 141.835938 115.390625 C 142.605469 115.753906 143.285156 116.074219 144.015625 116.421875 C 143.566406 116.84375 143.566406 116.84375 142.78125 116.207031 Z M 146.761719 160.238281 C 146.585938 159.847656 146.441406 159.539062 146.15625 158.914062 C 146.777344 159.074219 147.457031 159.050781 147.589844 159.320312 C 147.933594 160.027344 147.320312 160.152344 146.761719 160.238281 Z M 149.625 155.480469 C 149.914062 155.359375 150.144531 155.082031 150.386719 154.886719 C 151.71875 155.996094 151.253906 157.113281 150.4375 158.207031 C 148.679688 157.019531 148.679688 157.019531 148.671875 155.613281 C 148.988281 155.574219 149.335938 155.601562 149.625 155.480469 Z M 145.535156 146.28125 C 145.738281 146.25 145.980469 146.214844 146.320312 146.160156 C 146.070312 145.832031 145.886719 145.59375 145.542969 145.148438 C 146.328125 145.039062 146.960938 144.914062 147.597656 144.882812 C 147.75 144.875 147.976562 145.144531 148.054688 145.339844 C 148.105469 145.464844 147.96875 145.816406 147.878906 145.832031 C 147.097656 145.96875 147.242188 146.335938 147.578125 146.832031 C 147.726562 147.054688 147.78125 147.351562 147.867188 147.585938 C 147.285156 147.796875 146.875 147.941406 146.425781 148.105469 C 145.921875 147.664062 144.96875 147.414062 145.535156 146.28125 Z M 145.535156 146.28125 " fill-opacity="1" fill-rule="nonzero"/><path fill="#d1950a" d="M 219.894531 194.671875 C 219.726562 191.820312 219.894531 187.636719 218.191406 186.46875 C 215.019531 184.292969 210.640625 183.878906 207.179688 182.851562 C 204.980469 187.671875 203.078125 191.832031 200.957031 196.480469 C 206.144531 196.480469 211.207031 196.601562 216.257812 196.398438 C 217.554688 196.34375 219.925781 195.203125 219.894531 194.671875 Z M 211.757812 186.097656 C 211.894531 185.566406 212.023438 185.050781 212.164062 184.488281 C 212.542969 184.792969 212.878906 185.058594 213.246094 185.351562 C 212.761719 185.59375 212.335938 185.808594 211.757812 186.097656 Z M 211.757812 186.097656 " fill-opacity="1" fill-rule="nonzero"/><path fill="#d1950a" d="M 200.335938 178.507812 C 200.324219 178.75 200.3125 178.996094 200.304688 179.246094 C 199.832031 179.039062 199.492188 178.894531 198.886719 178.636719 C 199.203125 178.339844 199.472656 178.085938 199.921875 177.664062 C 199.34375 177.441406 199.011719 177.3125 198.824219 177.242188 C 198.964844 176.898438 199.128906 176.507812 199.308594 176.078125 C 197.089844 172.023438 192.804688 169.359375 187.828125 169.449219 C 183.855469 169.519531 180.371094 171.304688 178.03125 174.097656 C 178.289062 174.164062 178.546875 174.234375 178.808594 174.300781 C 178.792969 174.464844 178.777344 174.625 178.761719 174.789062 C 178.425781 174.800781 178.074219 174.882812 177.773438 174.789062 C 177.722656 174.773438 177.703125 174.65625 177.695312 174.507812 C 175.945312 176.773438 174.917969 179.636719 174.953125 182.773438 C 174.964844 184.1875 175.226562 185.546875 175.675781 186.820312 C 177.738281 188.023438 177.792969 188.128906 177.394531 190.035156 C 176.808594 188.953125 176.285156 187.980469 175.710938 186.917969 C 177.503906 191.882812 182.300781 195.464844 187.949219 195.515625 C 189.359375 195.527344 190.710938 195.320312 191.972656 194.929688 C 191.75 193.796875 191.5625 192.683594 191.035156 191.679688 C 190.925781 191.714844 190.753906 191.765625 190.378906 191.878906 C 190.519531 191.457031 190.613281 191.175781 190.703125 190.894531 C 191 191.046875 191.472656 191.132812 191.558594 191.367188 C 191.933594 192.394531 192.246094 193.453125 192.488281 194.523438 C 192.503906 194.589844 192.515625 194.664062 192.527344 194.730469 C 197.5 192.9375 200.953125 188.195312 200.929688 182.4375 C 200.925781 181.0625 200.71875 179.742188 200.335938 178.507812 Z M 175.996094 180.160156 C 175.835938 180.078125 175.675781 179.996094 175.515625 179.914062 C 175.675781 179.441406 175.832031 178.96875 175.992188 178.496094 C 176.230469 178.6875 176.703125 178.976562 176.671875 179.054688 C 176.519531 179.453125 176.234375 179.796875 175.996094 180.160156 Z M 187.492188 179.792969 C 187.710938 180.742188 187.929688 181.691406 188.148438 182.636719 C 188.019531 182.679688 187.894531 182.71875 187.765625 182.761719 C 187.601562 181.789062 187.433594 180.816406 187.269531 179.84375 C 187.34375 179.828125 187.417969 179.8125 187.492188 179.792969 Z M 186.875 177.96875 C 186.996094 177.511719 187.097656 177.113281 187.21875 176.65625 C 187.394531 176.679688 187.613281 176.710938 187.863281 176.75 C 187.785156 177.195312 187.71875 177.589844 187.636719 178.050781 C 187.390625 178.023438 187.136719 177.996094 186.875 177.96875 Z M 187.347656 172.335938 C 187.648438 172.671875 187.816406 173.136719 188.039062 173.550781 C 187.628906 173.613281 187.164062 173.832031 186.832031 173.695312 C 186.574219 173.589844 186.484375 173.046875 186.1875 172.425781 C 186.8125 172.367188 187.230469 172.207031 187.347656 172.335938 Z M 185.285156 170.140625 C 185.675781 170.472656 186.039062 170.777344 186.460938 171.132812 C 186.054688 171.417969 185.765625 171.617188 185.636719 171.707031 C 185.628906 172.113281 185.621094 172.386719 185.617188 172.660156 C 184.71875 171.535156 184.71875 171.535156 185.285156 170.140625 Z M 178.894531 184.707031 C 178.792969 184.710938 178.691406 184.710938 178.589844 184.714844 C 178.46875 184.300781 178.128906 183.746094 178.273438 183.503906 C 178.492188 183.136719 179.046875 182.980469 179.472656 182.726562 C 179.242188 183.515625 179.066406 184.109375 178.894531 184.707031 Z M 182.671875 182.667969 C 181.613281 183.40625 180.652344 181.890625 179.578125 182.460938 C 179.625 180.988281 180.046875 179.734375 181.535156 179.304688 C 182.886719 178.917969 183.925781 179.757812 185.175781 180.660156 C 184.285156 181.382812 183.515625 182.082031 182.671875 182.667969 Z M 185.089844 179.464844 C 185.226562 179.667969 185.335938 179.824219 185.519531 180.089844 C 185.734375 179.675781 185.914062 179.332031 186.117188 178.945312 C 186.433594 180.320312 186.734375 181.621094 187.035156 182.917969 C 186.914062 182.953125 186.796875 182.984375 186.675781 183.015625 C 186.4375 182.191406 186.203125 181.363281 185.957031 180.503906 C 185.410156 180.441406 184.566406 180.644531 185.089844 179.464844 Z M 189.269531 187.035156 C 188.484375 187.015625 188.019531 187.179688 188.195312 188.121094 C 188.261719 188.484375 187.835938 188.941406 187.640625 189.355469 C 186.359375 188.449219 185.75 186.648438 186.503906 184.632812 C 187.457031 185.296875 188.410156 185.957031 189.363281 186.621094 C 189.332031 186.757812 189.300781 186.898438 189.269531 187.035156 Z M 191.089844 190.6875 C 190.863281 189.710938 190.671875 188.886719 190.433594 187.851562 C 190.722656 188.011719 191.035156 188.074219 191.121094 188.25 C 191.460938 188.964844 191.945312 189.707031 191.089844 190.6875 Z M 192.050781 174.160156 C 192.78125 173.980469 193.515625 173.796875 194.269531 173.613281 C 194.210938 173.203125 194.175781 172.941406 194.132812 172.648438 C 194.273438 172.644531 194.421875 172.597656 194.457031 172.640625 C 195.144531 173.527344 194.691406 174.46875 194.695312 175.386719 C 194.609375 175.402344 194.519531 175.421875 194.429688 175.4375 C 194.296875 175.226562 194.160156 175.015625 193.964844 174.71875 C 192.65625 176.789062 192.898438 173.777344 192.050781 174.160156 Z M 193.75 188.929688 C 193.855469 188.386719 193.949219 187.90625 194.039062 187.429688 C 194.253906 187.558594 194.5625 187.636719 194.664062 187.828125 C 194.996094 188.476562 194.828125 188.902344 193.75 188.929688 Z M 193.492188 186 C 193.402344 186.019531 193.046875 186.238281 192.792969 186.148438 C 192.15625 185.914062 192.195312 185.371094 192.445312 184.527344 C 192.585938 185.019531 192.652344 185.25 192.734375 185.535156 C 192.835938 185.445312 192.949219 185.394531 192.960938 185.328125 C 193.070312 184.664062 193.425781 184.117188 193.308594 183.324219 C 193.140625 182.183594 194.480469 181.488281 195.589844 181.816406 C 196.691406 182.140625 196.996094 182.804688 196.835938 183.875 C 196.808594 184.058594 196.929688 184.265625 196.980469 184.464844 C 197.257812 185.566406 196.863281 186.136719 195.769531 186.140625 C 195.097656 186.140625 194.425781 186.058594 193.492188 186 Z M 196.144531 191.832031 C 195.699219 191.441406 195.699219 191.441406 196.226562 189.601562 C 196.839844 189.917969 197.433594 190.222656 198.066406 190.546875 C 197.363281 191.019531 196.777344 191.410156 196.144531 191.832031 Z M 198.140625 179.703125 C 197.835938 179.109375 197.582031 178.613281 197.203125 177.882812 C 197.425781 177.828125 197.964844 177.511719 198.179688 177.671875 C 198.992188 178.261719 198.636719 178.980469 198.140625 179.703125 Z M 198.140625 179.703125 " fill-opacity="1" fill-rule="nonzero"/><path fill="#d1950a" d="M 312.472656 138.433594 C 302.128906 128.335938 292.296875 117.808594 281.058594 109.089844 C 277.964844 106.6875 274.746094 104.933594 271.449219 103.769531 C 270.9375 103.863281 270.421875 103.933594 269.914062 104.03125 C 269.765625 104.058594 269.5625 104.011719 269.4375 103.917969 C 267.945312 102.828125 266.277344 103.484375 264.6875 103.402344 C 264.207031 103.375 263.722656 103.371094 263.242188 103.355469 C 263.242188 103.226562 263.242188 103.097656 263.238281 102.96875 C 264.828125 102.902344 266.414062 102.832031 267.996094 102.761719 C 259.421875 100.804688 250.421875 102.597656 241.726562 107.207031 C 236.296875 110.085938 231.671875 113.65625 228.179688 117.960938 C 228.421875 118.390625 228.6875 118.800781 228.917969 119.175781 C 228.386719 119.308594 227.546875 119.316406 226.949219 119.710938 C 226.898438 119.742188 226.84375 119.765625 226.792969 119.792969 C 226.039062 120.867188 225.347656 121.980469 224.730469 123.140625 C 225.027344 123.289062 225.324219 123.441406 225.625 123.59375 C 225.511719 123.769531 225.398438 123.945312 225.285156 124.121094 C 225.023438 123.9375 224.761719 123.757812 224.503906 123.578125 C 224.371094 123.839844 224.238281 124.097656 224.113281 124.363281 C 224.195312 124.394531 224.277344 124.425781 224.359375 124.457031 C 224.328125 124.871094 224.191406 125.015625 223.835938 124.972656 C 221.914062 129.226562 220.914062 134.019531 221.035156 139.382812 C 221.328125 152.179688 223.265625 164.941406 224.585938 178.847656 C 226.71875 174.851562 228.972656 171.148438 231.332031 167.710938 C 231.160156 167.824219 230.75 167.847656 230.664062 167.734375 C 230.433594 167.429688 230.320312 167.027344 230.058594 166.429688 C 230.503906 166.570312 230.664062 166.59375 230.796875 166.667969 C 231.171875 166.882812 231.09375 166.785156 231.496094 166.484375 C 231.734375 166.308594 232.050781 166.25 232.371094 166.199219 C 251.539062 139.335938 278.042969 130.328125 312.472656 138.433594 Z M 245.210938 116.113281 C 245.738281 116.21875 246.765625 115.402344 246.6875 116.949219 C 246.03125 116.964844 245.371094 116.976562 244.714844 116.988281 C 244.667969 116.890625 244.617188 116.796875 244.566406 116.699219 C 244.785156 116.492188 245.039062 116.078125 245.210938 116.113281 Z M 229.851562 133.378906 C 230.773438 133.144531 231.441406 132.902344 232.121094 132.839844 C 232.296875 132.824219 232.523438 133.359375 232.746094 133.671875 C 231.449219 134.570312 231.449219 134.570312 229.851562 133.378906 Z M 234.808594 138.082031 C 234.679688 138.105469 234.546875 138.128906 234.417969 138.152344 C 233.96875 137.449219 233.519531 136.746094 232.875 135.734375 C 233.617188 136.082031 234.285156 136.21875 234.667969 136.632812 C 234.925781 136.910156 234.777344 137.585938 234.808594 138.082031 Z M 239.203125 145.578125 C 238.859375 145.953125 238.40625 146.542969 237.558594 145.703125 C 238.082031 145.179688 238.554688 144.703125 239.03125 144.226562 C 239.164062 144.300781 239.300781 144.378906 239.4375 144.453125 C 239.367188 144.835938 239.421875 145.339844 239.203125 145.578125 Z M 239.203125 145.578125 " fill-opacity="1" fill-rule="nonzero"/><path fill="#d1950a" d="M 173.132812 172.34375 C 175.675781 168.582031 179.433594 166.136719 183.484375 165.066406 C 183.484375 165 183.484375 164.941406 183.484375 164.871094 C 183.578125 164.917969 183.652344 164.957031 183.730469 165 C 183.941406 164.945312 184.15625 164.902344 184.367188 164.859375 C 184.394531 164.714844 184.421875 164.578125 184.449219 164.425781 C 184.589844 164.535156 184.71875 164.644531 184.84375 164.757812 C 188.175781 164.136719 191.636719 164.441406 194.738281 165.6875 C 194.695312 165.578125 194.652344 165.46875 194.605469 165.339844 C 195.496094 164.867188 196.402344 164.386719 197.308594 163.90625 C 197.460938 164.53125 196.980469 166.039062 196.519531 166.484375 C 196.519531 166.503906 196.523438 166.515625 196.523438 166.535156 C 198.867188 167.828125 200.929688 169.722656 202.449219 172.253906 C 206.613281 179.179688 213.082031 178.714844 219.519531 181.246094 C 219.519531 179.621094 219.554688 179.054688 219.511719 178.496094 C 218.242188 160.714844 216.902344 142.941406 215.75 125.15625 C 215.734375 124.914062 215.699219 124.703125 215.667969 124.492188 C 215.375 124.277344 215.082031 124.101562 214.820312 124.132812 C 213.71875 124.269531 213.472656 123.273438 212.96875 123.066406 C 213.082031 122.539062 213.175781 122.210938 213.210938 121.878906 C 213.222656 121.785156 213.304688 121.625 213.425781 121.441406 C 213.066406 121.261719 212.675781 121.101562 212.238281 120.949219 C 211.785156 120.792969 211.332031 120.640625 210.878906 120.488281 C 210.585938 120.785156 210.34375 121.03125 210.101562 121.277344 C 210.058594 121.246094 210.015625 121.210938 209.972656 121.179688 C 210.117188 120.894531 210.257812 120.605469 210.390625 120.332031 C 209.519531 120.046875 208.644531 119.765625 207.769531 119.484375 C 207.734375 119.597656 207.785156 119.753906 207.984375 120.007812 C 208.109375 120.167969 207.949219 120.570312 207.921875 120.859375 C 207.777344 120.847656 207.632812 120.835938 207.484375 120.824219 C 207.515625 120.554688 207.578125 120.28125 207.566406 120.011719 C 207.558594 119.820312 207.53125 119.625 207.5 119.394531 C 206.566406 119.09375 205.640625 118.785156 204.71875 118.460938 C 204.691406 118.660156 204.664062 118.851562 204.636719 119.042969 C 204.546875 119.070312 204.457031 119.101562 204.367188 119.132812 C 204.324219 118.867188 204.316406 118.578125 204.28125 118.308594 C 200.671875 117.015625 197.175781 115.433594 194.039062 112.804688 C 193.929688 112.710938 193.808594 112.628906 193.691406 112.539062 C 193.410156 112.976562 193.125 113.414062 192.816406 113.890625 C 191.375 113.773438 190.808594 114.726562 191.730469 117.132812 C 191.253906 116.769531 190.808594 116.730469 191.046875 115.921875 C 191.351562 114.890625 190.355469 115.125 189.683594 114.917969 C 190.765625 113.257812 188.984375 113.199219 188.316406 112.347656 C 188.628906 112.214844 188.902344 112.101562 189.425781 111.878906 C 188.898438 111.601562 188.550781 111.425781 188.128906 111.207031 C 188.214844 111.042969 188.320312 110.855469 188.351562 110.679688 C 186.109375 110.609375 183.84375 111.304688 182.0625 112.769531 C 176.5 117.34375 169.898438 118.914062 163.445312 121.023438 C 160.804688 121.886719 160.300781 123.402344 160.160156 125.871094 C 159.390625 139.285156 158.480469 152.691406 157.554688 166.09375 C 157.226562 170.851562 156.71875 175.597656 156.289062 180.359375 C 160.023438 180.503906 163.503906 179.722656 166.484375 178.191406 C 166.050781 178.113281 165.609375 178.035156 165.164062 177.953125 C 164.964844 178.175781 164.652344 178.527344 164.34375 178.875 C 164.203125 178.792969 164.0625 178.710938 163.921875 178.628906 C 164.082031 178.214844 164.167969 177.746094 164.414062 177.402344 C 164.785156 176.878906 165.210938 177.125 165.640625 177.4375 C 165.890625 177.617188 166.242188 177.652344 166.550781 177.75 C 166.558594 177.542969 166.566406 177.335938 166.585938 176.800781 C 166.929688 177.101562 167.234375 177.367188 167.519531 177.617188 C 169.757812 176.28125 171.671875 174.503906 173.132812 172.34375 Z M 204.628906 154.121094 C 205.109375 155.132812 205.519531 156.003906 206.050781 157.113281 C 204.488281 155.984375 204.253906 155.488281 204.628906 154.121094 Z M 207.46875 141.359375 C 207.515625 141.277344 207.5625 141.195312 207.609375 141.113281 C 208.128906 141.429688 208.644531 141.746094 209.28125 142.132812 C 208.609375 142.519531 208.179688 142.761719 207.433594 143.191406 C 207.699219 142.605469 207.863281 142.238281 208.058594 141.808594 C 207.957031 141.730469 207.714844 141.546875 207.46875 141.359375 Z M 215.914062 135.660156 C 216.273438 136.457031 215.582031 136.816406 214.71875 137.433594 C 214.929688 136.917969 215.027344 136.675781 215.097656 136.511719 C 214.757812 136.039062 214.449219 135.605469 214.136719 135.167969 C 214.175781 135.113281 214.210938 135.054688 214.246094 134.996094 C 214.746094 135.195312 215.242188 135.394531 215.914062 135.660156 Z M 213.238281 123.332031 C 213.621094 124.402344 213.902344 125.1875 214.179688 125.972656 C 213.996094 126.003906 213.808594 126.039062 213.484375 126.09375 C 213.691406 125.71875 213.824219 125.472656 213.855469 125.414062 C 213.394531 124.945312 213.007812 124.597656 212.699219 124.1875 C 212.652344 124.121094 212.949219 123.777344 213.238281 123.332031 Z M 213.191406 130.875 C 213.585938 130.925781 213.90625 131.578125 214.351562 132.0625 C 214.355469 132.03125 213.925781 132.386719 213.175781 132.851562 C 213.210938 132.492188 213.234375 132.222656 213.269531 131.882812 C 212.738281 131.824219 212.257812 131.773438 211.777344 131.722656 C 211.753906 131.652344 211.730469 131.582031 211.707031 131.515625 C 212.203125 131.277344 212.730469 130.816406 213.191406 130.875 Z M 210.136719 143.875 C 210.476562 143.636719 210.847656 143.453125 211.203125 143.242188 C 211.199219 143.363281 211.195312 143.480469 211.191406 143.601562 C 211.582031 143.765625 211.96875 143.929688 212.359375 144.097656 C 211.527344 145.378906 210.695312 146.664062 209.863281 147.949219 C 209.535156 146.804688 209.207031 145.65625 208.96875 144.84375 C 209.511719 144.390625 209.808594 144.105469 210.136719 143.875 Z M 207.679688 121.734375 C 208.378906 122.152344 209.046875 122.546875 209.847656 123.023438 C 208.785156 122.945312 207.945312 122.882812 207.0625 122.816406 C 207.164062 122.636719 207.394531 122.234375 207.679688 121.734375 Z M 206.300781 134.722656 C 206.433594 134.621094 206.851562 134.636719 206.867188 134.679688 C 207.203125 135.882812 208.640625 135.53125 209.257812 136.429688 C 208.726562 136.941406 208.410156 137.03125 207.789062 136.511719 C 207.1875 136.007812 206.285156 135.898438 205.417969 135.582031 C 205.6875 135.316406 205.964844 134.980469 206.300781 134.722656 Z M 204.785156 129.308594 C 204.910156 129.253906 205.257812 129.714844 205.585938 130.015625 C 204.945312 130.183594 204.488281 130.300781 204.03125 130.421875 C 203.960938 130.328125 203.894531 130.238281 203.824219 130.148438 C 204.136719 129.855469 204.417969 129.480469 204.785156 129.308594 Z M 205.273438 146.757812 C 204.367188 147.226562 203.859375 146.679688 203.410156 145.972656 C 203.191406 145.632812 202.949219 145.3125 202.75 145.027344 C 203.898438 144.6875 204.886719 145.285156 205.273438 146.757812 Z M 198.167969 117.941406 C 198.253906 117.832031 198.507812 117.757812 198.632812 117.808594 C 199.460938 118.128906 200.273438 118.492188 201.351562 118.953125 C 200.9375 119.054688 200.800781 119.054688 200.710938 119.121094 C 200.496094 119.273438 200.304688 119.460938 200.105469 119.632812 C 200.304688 119.761719 200.507812 119.886719 200.707031 120.007812 C 200.882812 120.117188 201.058594 120.222656 201.1875 120.300781 C 199.605469 120.296875 198.085938 120.292969 196.414062 120.289062 C 197.039062 119.449219 197.589844 118.679688 198.167969 117.941406 Z M 194.578125 124.753906 C 195.425781 124.605469 196.3125 124.671875 197.183594 124.660156 C 197.136719 124.796875 197.09375 124.9375 197.050781 125.074219 C 197.085938 125.480469 197.167969 125.890625 197.140625 126.292969 C 197.125 126.535156 196.996094 126.851562 196.8125 126.980469 C 196.273438 127.363281 194.125 126.515625 194.070312 125.855469 C 194.039062 125.488281 194.34375 124.792969 194.578125 124.753906 Z M 174.816406 132.613281 C 174.742188 132.476562 174.667969 132.347656 174.59375 132.210938 C 175.210938 131.835938 175.828125 131.464844 176.445312 131.089844 C 176.503906 131.1875 176.5625 131.28125 176.621094 131.378906 C 176.015625 131.789062 175.417969 132.199219 174.816406 132.613281 Z M 176.664062 133.460938 C 176.679688 133.378906 176.699219 133.292969 176.714844 133.207031 C 177.230469 133.320312 177.746094 133.4375 178.265625 133.550781 C 178.269531 133.632812 178.269531 133.710938 178.273438 133.792969 C 177.984375 133.863281 177.699219 133.9375 177.3125 134.035156 C 177.429688 134.269531 177.515625 134.453125 177.601562 134.625 C 177.066406 135.019531 176.535156 135.414062 176.003906 135.808594 C 175.9375 135.75 175.875 135.691406 175.8125 135.632812 C 176.183594 135.054688 176.554688 134.480469 177 133.796875 C 177.003906 133.808594 176.832031 133.636719 176.664062 133.460938 Z M 179.332031 130.304688 C 179.394531 130.371094 179.441406 130.410156 179.4375 130.417969 C 179.175781 130.828125 178.910156 131.238281 178.636719 131.664062 C 178.234375 131.558594 177.847656 131.457031 177.535156 131.375 C 177.445312 131.84375 177.359375 132.292969 177.257812 132.824219 C 176.699219 131.871094 176.882812 130.347656 177.636719 129.960938 C 177.894531 129.832031 178.347656 130.117188 178.714844 130.214844 C 178.699219 130.324219 178.679688 130.433594 178.664062 130.539062 C 178.894531 130.460938 179.125 130.378906 179.332031 130.304688 Z M 179.265625 136.519531 C 179.632812 136.929688 180 137.335938 180.332031 137.703125 C 179.8125 137.75 179.382812 137.753906 179.011719 137.722656 C 179.027344 137.753906 179.042969 137.78125 179.058594 137.8125 C 179.355469 137.871094 179.933594 137.992188 180.589844 138.125 C 180.445312 138.480469 180.347656 138.722656 180.234375 138.996094 C 179.515625 138.605469 178.847656 138.242188 178.136719 137.855469 C 178.164062 137.761719 178.199219 137.652344 178.226562 137.554688 C 177.867188 137.414062 177.609375 137.1875 177.433594 136.859375 C 177.144531 136.792969 176.851562 136.726562 176.5625 136.660156 C 176.554688 136.566406 176.542969 136.476562 176.535156 136.386719 C 177.085938 136.328125 177.714844 136.082031 178.171875 136.273438 C 178.335938 136.34375 178.457031 136.527344 178.574219 136.765625 C 178.832031 136.769531 179.089844 136.769531 179.34375 136.773438 C 179.316406 136.6875 179.289062 136.605469 179.265625 136.519531 Z M 180.382812 140.15625 C 180.25 140.292969 180.117188 140.433594 179.988281 140.570312 C 179.445312 139.953125 178.90625 139.335938 178.367188 138.714844 C 178.453125 138.628906 178.542969 138.539062 178.628906 138.453125 C 179.210938 139.019531 179.796875 139.585938 180.382812 140.15625 Z M 177.257812 146.316406 C 177.222656 146.84375 177.195312 147.234375 177.160156 147.78125 C 176.6875 147.527344 176.308594 147.328125 175.761719 147.035156 C 176.324219 146.761719 176.730469 146.570312 177.257812 146.316406 Z M 176.589844 151.75 C 176.527344 150.890625 176.476562 150.207031 176.429688 149.523438 C 176.488281 149.445312 176.550781 149.367188 176.613281 149.292969 C 177.210938 149.832031 177.808594 150.375 178.550781 151.046875 C 177.703125 151.351562 177.117188 151.5625 176.589844 151.75 Z M 181.066406 149.03125 C 180.628906 148.894531 180.238281 148.597656 179.824219 148.367188 C 179.867188 148.304688 179.90625 148.246094 179.945312 148.183594 C 180.371094 148.183594 180.804688 148.128906 181.21875 148.203125 C 181.417969 148.234375 181.578125 148.503906 181.753906 148.667969 C 181.523438 148.796875 181.246094 149.085938 181.066406 149.03125 Z M 183.839844 136.75 C 183.746094 136.859375 183.65625 136.972656 183.566406 137.082031 C 182.867188 136.425781 182.171875 135.773438 181.472656 135.117188 C 181.535156 135.042969 181.59375 134.96875 181.652344 134.894531 C 182.382812 135.511719 183.109375 136.132812 183.839844 136.75 Z M 182.355469 130.566406 C 182.425781 130.511719 182.492188 130.460938 182.558594 130.40625 C 183.3125 131.449219 184.0625 132.488281 184.816406 133.53125 C 183.914062 133.292969 183.316406 132.75 183.09375 131.761719 C 182.996094 131.328125 182.609375 130.960938 182.355469 130.566406 Z M 182.324219 140.710938 C 182.703125 141.691406 183.085938 142.667969 183.464844 143.648438 C 183.378906 143.691406 183.289062 143.730469 183.203125 143.773438 C 182.777344 142.8125 182.351562 141.851562 181.929688 140.890625 C 182.058594 140.832031 182.191406 140.773438 182.324219 140.710938 Z M 183.960938 158.265625 C 183.804688 158.035156 183.648438 157.800781 183.449219 157.5 C 183.292969 157.699219 183.179688 157.839844 183.070312 157.980469 C 182.992188 157.976562 182.910156 157.96875 182.828125 157.960938 C 182.863281 157.367188 182.894531 156.777344 182.914062 156.476562 C 182.628906 155.566406 182.414062 154.867188 182.199219 154.167969 C 182.347656 154.105469 182.496094 154.046875 182.644531 153.988281 C 183.195312 155.355469 183.742188 156.726562 184.292969 158.09375 C 184.183594 158.152344 184.070312 158.210938 183.960938 158.265625 Z M 185.40625 159.515625 C 186.078125 158.367188 186.078125 158.367188 187.601562 160.421875 C 186.886719 161.109375 186.613281 160.996094 185.40625 159.515625 Z M 186.984375 150.875 C 186.148438 151.152344 185.246094 151.226562 184.371094 151.378906 C 184.34375 151.230469 184.316406 151.078125 184.289062 150.925781 C 185.351562 150.507812 186.414062 150.089844 187.742188 149.5625 C 187.402344 150.1875 187.269531 150.785156 186.984375 150.875 Z M 186.636719 130.164062 C 186.960938 130.398438 187.523438 130.285156 188.089844 130.339844 C 188.140625 129.59375 188.464844 129.515625 189.210938 130.21875 C 188.660156 130.40625 188.257812 130.539062 187.855469 130.679688 C 187.253906 130.890625 186.632812 131.058594 186.0625 131.335938 C 185.492188 131.617188 184.671875 131.417969 184.488281 130.824219 C 184.445312 130.675781 184.554688 130.320312 184.628906 130.3125 C 185.285156 130.21875 185.875 129.601562 186.636719 130.164062 Z M 182.875 127.566406 C 182.839844 127.78125 182.808594 127.980469 182.75 128.359375 C 182.457031 128.101562 182.261719 127.929688 182.050781 127.746094 C 182.941406 126.925781 183.738281 126.519531 184.695312 128.023438 C 183.960938 127.839844 183.457031 127.714844 182.875 127.566406 Z M 182.742188 113.296875 C 182.945312 114.636719 183.738281 114.167969 184.417969 113.964844 C 184.402344 114.140625 184.390625 114.320312 184.375 114.5 C 183.640625 114.546875 182.910156 114.589844 182.175781 114.636719 C 182.113281 114.53125 182.050781 114.425781 181.988281 114.320312 C 182.238281 113.976562 182.492188 113.636719 182.742188 113.296875 Z M 183.464844 125.765625 C 183.535156 126.636719 182.253906 127.457031 181.058594 127.214844 C 181.890625 126.714844 182.648438 126.257812 183.464844 125.765625 Z M 178.9375 133.066406 C 179.109375 132.761719 179.257812 132.5 179.390625 132.257812 C 179.96875 132.386719 180.492188 132.5 181.011719 132.613281 C 180.828125 133.0625 180.828125 133.0625 178.9375 133.066406 Z M 180.648438 119.851562 C 179.644531 119.957031 178.894531 120.039062 178.140625 120.121094 C 178.132812 120.039062 178.125 119.953125 178.113281 119.871094 C 178.351562 119.675781 178.589844 119.484375 178.828125 119.292969 C 178.585938 119.085938 178.34375 118.882812 178.089844 118.667969 C 178.59375 117.683594 179.109375 117.855469 180.648438 119.851562 Z M 176.039062 120.164062 C 176.960938 120.328125 177.792969 120.472656 178.71875 120.640625 C 178.304688 121.449219 177.84375 122.359375 177.28125 123.464844 C 176.738281 122.644531 176.351562 122.054688 175.925781 121.410156 C 176.289062 121.222656 176.464844 121.132812 176.703125 121.007812 C 176.476562 120.71875 176.28125 120.472656 176.039062 120.164062 Z M 175.050781 126.792969 C 175.59375 126.996094 176.140625 127.199219 176.765625 127.433594 C 176.660156 128.898438 175.089844 128.347656 174.628906 129.480469 C 174.335938 128.996094 174.144531 128.675781 173.941406 128.339844 C 174.578125 128.273438 175.042969 128.222656 175.683594 128.152344 C 175.332031 127.628906 175.132812 127.332031 174.929688 127.03125 C 174.972656 126.953125 175.011719 126.875 175.050781 126.792969 Z M 173.675781 119.464844 C 173.957031 119.542969 174.230469 119.621094 174.570312 119.71875 C 174.550781 119.980469 174.53125 120.257812 174.507812 120.632812 C 174.078125 120.511719 173.777344 120.425781 173.449219 120.332031 C 173.523438 120.046875 173.589844 119.792969 173.675781 119.464844 Z M 165.6875 121.050781 C 165.867188 121.558594 166.050781 122.003906 166.160156 122.464844 C 166.179688 122.53125 165.792969 122.820312 165.695312 122.773438 C 165.324219 122.589844 164.996094 122.316406 164.597656 122.039062 C 165.003906 121.667969 165.28125 121.417969 165.6875 121.050781 Z M 161.285156 123.300781 C 161.363281 123.289062 161.445312 123.277344 161.527344 123.269531 C 161.503906 123.917969 161.484375 124.566406 161.453125 125.496094 C 160.921875 125.140625 160.625 124.945312 160.347656 124.761719 C 160.699219 124.210938 160.992188 123.757812 161.285156 123.300781 Z M 163.710938 161.125 C 163.824219 160.3125 163.941406 159.449219 164.0625 158.589844 C 164.15625 158.554688 164.253906 158.519531 164.347656 158.484375 C 164.664062 158.929688 164.984375 159.371094 165.359375 159.898438 C 165.449219 159.855469 165.640625 159.765625 165.96875 159.609375 C 166.09375 160.335938 166.222656 161.074219 166.335938 161.746094 C 165.417969 161.53125 164.609375 161.339844 163.710938 161.125 Z M 166.804688 151.296875 C 165.828125 151.175781 165.519531 150.46875 165.402344 149.746094 C 165.382812 149.628906 166.457031 149.039062 166.820312 149.191406 C 168.238281 149.789062 166.765625 150.542969 166.804688 151.296875 Z M 166.222656 134.328125 C 166.222656 134.328125 166.160156 134.640625 166.09375 134.949219 C 166.015625 134.9375 165.933594 134.925781 165.855469 134.914062 C 165.925781 134.417969 165.996094 133.917969 166.042969 133.589844 C 165.753906 133.070312 165.609375 132.507812 165.261719 132.253906 C 164.679688 131.832031 163.964844 131.605469 163.304688 131.300781 C 162.386719 130.882812 161.46875 130.46875 160.546875 130.054688 C 160.5 129.847656 160.453125 129.644531 160.40625 129.4375 C 161.277344 129.753906 162.191406 129.984375 163.011719 130.40625 C 164.8125 131.328125 166.566406 132.351562 168.449219 133.394531 C 167.703125 133.707031 167.078125 133.96875 166.222656 134.328125 Z M 168.164062 130.257812 C 168.328125 129.796875 168.496094 129.328125 168.734375 128.667969 C 169.019531 129.445312 169.253906 130.078125 169.570312 130.921875 C 168.976562 130.644531 168.59375 130.460938 168.164062 130.257812 Z M 170.757812 131.433594 C 171.0625 130.699219 171.574219 131.324219 171.929688 131.484375 C 172.417969 131.707031 172.835938 132.085938 173.457031 132.515625 C 172.910156 132.414062 172.53125 132.230469 172.414062 132.34375 C 172.121094 132.625 171.761719 133.039062 171.757812 133.40625 C 171.746094 134.132812 171.839844 134.132812 171.285156 134.074219 C 171.089844 133.65625 171.035156 133.273438 170.851562 133.1875 C 169.707031 132.652344 170.542969 131.949219 170.757812 131.433594 Z M 170.757812 131.433594 " fill-opacity="1" fill-rule="nonzero"/><path fill="#d1950a" d="M 190.308594 111.402344 C 190.371094 111.296875 190.433594 111.191406 190.496094 111.085938 C 190.457031 111.042969 190.417969 110.996094 190.382812 110.953125 C 189.996094 110.855469 189.601562 110.789062 189.207031 110.742188 C 189.554688 110.984375 189.941406 111.179688 190.308594 111.402344 Z M 190.308594 111.402344 " fill-opacity="1" fill-rule="nonzero"/><path fill="#d1950a" d="M 224.386719 201.46875 C 224.378906 201.5625 224.375 201.65625 224.367188 201.75 C 224.550781 201.6875 224.722656 201.582031 224.882812 201.398438 C 224.6875 201.425781 224.527344 201.449219 224.386719 201.46875 Z M 224.386719 201.46875 " fill-opacity="1" fill-rule="nonzero"/><path fill="#d1950a" d="M 192.253906 113.410156 C 192.324219 113.472656 192.734375 113.167969 192.945312 112.980469 C 193.144531 112.804688 193.300781 112.578125 193.46875 112.367188 C 193.175781 112.160156 192.875 111.972656 192.5625 111.804688 C 191.992188 112.003906 191.273438 111.132812 190.585938 111.773438 C 191.132812 112.328125 191.664062 112.90625 192.253906 113.410156 Z M 192.253906 113.410156 " fill-opacity="1" fill-rule="nonzero"/><g clip-path="url(#85bef2cae8)"><path fill="#d1950a" d="M 348.917969 187.902344 C 348.5 187.746094 348.191406 187.632812 347.699219 187.449219 C 348.503906 187.078125 349.257812 186.730469 350.003906 186.386719 C 342.097656 159.734375 317.652344 140.40625 288.542969 140.410156 C 254.097656 140.414062 226.335938 167.097656 224.40625 201.171875 C 225.523438 201.074219 226.632812 200.984375 227.234375 199.804688 C 228.679688 200.910156 228.792969 201.277344 228.101562 202.421875 C 228.265625 202.671875 228.445312 202.945312 228.75 203.410156 C 228.007812 203.488281 227.410156 203.613281 226.816406 203.597656 C 226.40625 203.585938 225.929688 203.628906 225.988281 202.804688 C 226.023438 202.304688 225.148438 202.027344 224.363281 202.101562 C 224.320312 203.0625 224.289062 204.027344 224.292969 205 C 224.3125 240.589844 252.910156 269.058594 288.597656 269.007812 C 296.796875 268.996094 304.628906 267.433594 311.835938 264.625 C 311.917969 264.195312 311.996094 263.769531 312.078125 263.328125 C 312.425781 263.292969 312.738281 263.265625 313.046875 263.242188 C 313.066406 263.199219 313.085938 263.160156 313.109375 263.117188 C 313.226562 263.277344 313.203125 263.226562 313.1875 263.230469 C 313.140625 263.230469 313.09375 263.238281 313.046875 263.238281 C 312.855469 263.628906 312.671875 264.003906 312.496094 264.367188 C 327.863281 258.179688 340.28125 246.246094 347.0625 231.230469 C 346.847656 230.902344 346.628906 230.574219 346.410156 230.25 C 346.464844 230.175781 346.515625 230.101562 346.566406 230.027344 C 346.8125 230.21875 347.109375 230.386719 347.363281 230.574219 C 347.535156 230.183594 347.703125 229.792969 347.863281 229.398438 C 347.425781 229.34375 346.988281 229.285156 346.554688 229.230469 C 346.546875 229.144531 346.539062 229.054688 346.53125 228.964844 C 347.058594 228.835938 347.605469 228.699219 348.203125 228.550781 C 351.085938 221.296875 352.695312 213.402344 352.707031 205.132812 C 352.71875 198.773438 351.808594 192.640625 350.132812 186.839844 C 349.660156 186.84375 349.238281 187.082031 348.917969 187.902344 Z M 226.742188 198.8125 C 226.601562 199.285156 226.398438 199.75 226.148438 200.171875 C 226.09375 200.257812 225.710938 200.128906 225.480469 200.097656 C 225.492188 199.988281 225.496094 199.878906 225.503906 199.769531 C 225.746094 199.691406 225.984375 199.617188 226.277344 199.523438 C 226.1875 199.273438 226.074219 199.089844 226.0625 198.898438 C 226.046875 198.691406 226.097656 198.460938 226.183594 198.269531 C 226.214844 198.199219 226.515625 198.160156 226.535156 198.199219 C 226.640625 198.386719 226.792969 198.640625 226.742188 198.8125 Z M 344.144531 182.984375 C 344.695312 184.082031 345.246094 185.175781 345.800781 186.269531 C 345.675781 186.335938 345.554688 186.40625 345.429688 186.472656 C 344.226562 185.726562 344.488281 184.191406 343.792969 183.171875 C 343.910156 183.109375 344.027344 183.046875 344.144531 182.984375 Z M 345.894531 218.882812 C 345.597656 219.65625 345.355469 220.285156 345.03125 221.125 C 344.777344 220.503906 344.613281 220.101562 344.429688 219.648438 C 344.859375 219.425781 345.289062 219.203125 345.894531 218.882812 Z M 338.410156 186.363281 C 338.925781 186.824219 339.445312 187.289062 339.964844 187.75 C 339.839844 187.914062 339.714844 188.078125 339.589844 188.242188 C 339.136719 187.851562 338.683594 187.460938 338.195312 187.046875 C 337.71875 187.425781 337.269531 187.78125 336.746094 188.199219 C 336.742188 187.582031 336.738281 187.144531 336.734375 186.703125 C 337.195312 186.695312 337.761719 186.6875 338.328125 186.679688 C 338.355469 186.574219 338.382812 186.46875 338.410156 186.363281 Z M 337.789062 179.644531 C 337.84375 180.390625 337.902344 181.148438 337.976562 182.128906 C 337.492188 181.339844 337.148438 180.78125 336.726562 180.089844 C 337.019531 179.96875 337.414062 179.800781 337.789062 179.644531 Z M 335.59375 172.75 C 336.769531 173.175781 336.78125 173.214844 335.980469 174.449219 C 336.257812 174.453125 336.46875 174.453125 336.699219 174.453125 C 336.363281 175.257812 336.046875 176.03125 335.773438 176.683594 C 334.976562 175.296875 334.433594 174.011719 335.59375 172.75 Z M 328.46875 165.484375 C 328.902344 165.152344 329.253906 164.878906 329.824219 164.441406 C 329.363281 165.359375 329.003906 166.078125 328.636719 166.808594 C 327.589844 166.351562 329.652344 165.734375 328.46875 165.484375 Z M 237.691406 172.121094 C 237.867188 172.277344 238.34375 172.5 238.464844 172.851562 C 238.707031 173.574219 237.941406 175.40625 237.519531 175.308594 C 236.894531 175.164062 236.058594 175.214844 235.847656 174.324219 C 235.671875 173.609375 236.621094 172.351562 237.691406 172.121094 Z M 234.511719 178.347656 C 235.3125 178.109375 236.023438 177.894531 236.839844 177.652344 C 236.953125 177.941406 237.070312 178.246094 237.1875 178.546875 C 237.148438 178.574219 237.109375 178.601562 237.070312 178.625 C 236.949219 178.507812 236.832031 178.386719 236.738281 178.292969 C 235.488281 178.914062 236.28125 179.875 236.371094 180.722656 C 235.492188 180.851562 234.429688 179.472656 234.511719 178.347656 Z M 312.730469 254.960938 C 312.148438 254.175781 311.570312 253.394531 310.96875 252.582031 C 310.675781 252.605469 310.21875 252.644531 309.757812 252.683594 C 309.710938 252.523438 309.660156 252.367188 309.613281 252.207031 C 310 252.015625 310.371094 251.730469 310.78125 251.648438 C 311.394531 251.527344 311.546875 252.003906 311.65625 252.539062 C 311.722656 252.847656 311.957031 253.117188 312.117188 253.40625 C 312.257812 253.257812 312.402344 253.113281 312.765625 252.734375 C 312.871094 253.585938 312.949219 254.257812 313.03125 254.929688 C 312.933594 254.9375 312.832031 254.949219 312.730469 254.960938 Z M 313.515625 256.703125 C 313.53125 256.0625 313.546875 255.507812 313.570312 254.6875 C 314.21875 255.550781 314.765625 256.160156 313.515625 256.703125 Z M 330.378906 233.808594 C 321.082031 247.328125 305.410156 256.207031 287.75 256.113281 C 273.320312 256.039062 260.367188 249.945312 251.175781 240.195312 C 250.515625 240.238281 249.785156 239.703125 249.433594 238.769531 C 249.570312 238.757812 249.703125 238.742188 249.839844 238.726562 C 241.917969 229.644531 237.125 217.703125 237.148438 204.589844 C 237.15625 200.800781 237.59375 197.113281 238.394531 193.5625 C 238.273438 193.609375 238.152344 193.679688 238.03125 193.785156 C 237.648438 193.625 237.304688 193.554688 237.058594 193.359375 C 236.730469 193.09375 236.449219 192.746094 236.210938 192.394531 C 236.160156 192.320312 236.421875 191.898438 236.445312 191.90625 C 236.796875 192.039062 237.132812 192.207031 237.464844 192.382812 C 237.582031 192.445312 237.675781 192.546875 237.96875 192.78125 C 237.804688 191.414062 236.902344 190.253906 237.636719 188.984375 C 238.824219 188.703125 239.0625 189.417969 239.292969 190.136719 C 245.59375 169.199219 265.117188 153.902344 288.136719 153.941406 C 316.589844 153.988281 339.414062 176.957031 339.285156 205.417969 C 339.238281 215.476562 336.222656 224.847656 331.082031 232.734375 C 331.40625 233.5625 330.902344 233.679688 330.378906 233.808594 Z M 336.535156 241.355469 C 337.050781 240.679688 337.464844 240.144531 337.875 239.605469 C 337.972656 239.59375 338.066406 239.582031 338.164062 239.566406 C 338.25 240.382812 338.332031 241.203125 338.4375 242.21875 C 337.613281 241.84375 337.046875 241.589844 336.535156 241.355469 Z M 339.554688 238.839844 C 339.375 238.324219 339.230469 237.910156 339.015625 237.308594 C 339.609375 237.507812 340.035156 237.648438 340.589844 237.835938 C 340.214844 238.195312 339.941406 238.464844 339.554688 238.839844 Z M 344.140625 190.671875 C 344.089844 190.878906 343.785156 191.019531 343.601562 191.195312 C 343.496094 191.019531 343.351562 190.859375 343.296875 190.667969 C 343.21875 190.410156 343.210938 190.128906 343.160156 189.761719 C 343.789062 189.601562 344.292969 190.011719 344.140625 190.671875 Z M 346.191406 224.167969 C 345.785156 224.167969 345.253906 224.222656 345.007812 224.488281 C 344.527344 225.011719 344.59375 225.078125 344.222656 224.648438 C 344.355469 224.203125 344.566406 223.882812 344.488281 223.691406 C 343.996094 222.492188 345.070312 222.5625 345.570312 222.332031 C 346.273438 222.007812 346.242188 222.828125 346.394531 223.199219 C 346.605469 223.703125 346.667969 224.273438 346.84375 225.027344 C 346.507812 224.566406 346.347656 224.164062 346.191406 224.167969 Z M 348.070312 212.519531 C 348.039062 212.578125 347.566406 212.519531 347.527344 212.417969 C 347.375 212.023438 347.3125 211.59375 347.199219 211.109375 C 347.742188 211.121094 348.113281 211.132812 348.648438 211.144531 C 348.449219 211.648438 348.292969 212.101562 348.070312 212.519531 Z M 348.722656 190.964844 C 348.195312 190.378906 347.808594 189.957031 347.425781 189.535156 C 347.5 189.457031 347.574219 189.382812 347.644531 189.308594 C 348.351562 189.457031 349.003906 189.65625 348.722656 190.964844 Z M 348.722656 190.964844 " fill-opacity="1" fill-rule="nonzero"/></g><path fill="#d1950a" d="M 329.050781 198.71875 C 328.71875 196.851562 328.265625 195.007812 328.101562 194.25 C 325.410156 186.03125 320.554688 179.132812 314.433594 174.085938 C 313.085938 175.742188 311.980469 175.09375 310.976562 173.664062 C 311.207031 173.035156 311.621094 172.597656 312.191406 172.367188 C 304.703125 166.996094 295.632812 164.230469 286.390625 164.925781 C 284.023438 165.105469 281.710938 165.523438 281.804688 168.417969 C 281.902344 171.429688 284.304688 171.453125 286.644531 171.359375 C 293.359375 171.089844 299.753906 172.414062 305.578125 175.824219 C 310.257812 178.558594 314.082031 181.921875 316.976562 185.953125 C 316.9375 185.730469 316.898438 185.503906 316.851562 185.21875 C 317.371094 185.347656 317.722656 185.433594 318.289062 185.574219 C 317.933594 185.941406 317.679688 186.207031 317.367188 186.53125 C 320.023438 190.402344 321.851562 194.867188 322.761719 199.972656 C 323.179688 202.304688 323.472656 205.136719 326.6875 204.65625 C 330.246094 204.121094 329.484375 201.175781 329.050781 198.71875 Z M 322.566406 196.125 C 322.703125 194.894531 321.226562 194.167969 321.59375 192.847656 C 321.617188 192.765625 321.25 192.5625 321.019531 192.382812 C 321.34375 192.277344 321.609375 192.1875 322.097656 192.027344 C 322.421875 193.433594 322.75 194.851562 323.140625 196.535156 C 322.753906 196.265625 322.5625 196.183594 322.566406 196.125 Z M 322.566406 196.125 " fill-opacity="1" fill-rule="nonzero"/></svg>